<svg xmlns="http://www.w3.org/2000/svg" baseProfile="tiny" version="1.2" viewBox="0 0 1255.9 421.8"><path fill="#ef3e4a" d="M377.7 422l129.8-.6L764 2.2S687.1-10.9 654.8 27C633 52.5 557 164 557 164L348.9 280l163.9-.2-63.6 91.3-71.5 50.9z"/><path fill="#FFF" d="M135.2 156.1H63.4L57 207.2h60.1l-4.5 33.4H53l-9.3 76H0l24-194h115.6l-4.4 33.5zm42 125.9h65.2l-4.3 34.6H129.6l24-194H197L177.2 282zm141.6-39.6l-9.2 74.3h-43.4l9.2-73.9-49.9-120.1h38.6c3.7 0 6.6.9 8.7 2.6s3.6 4 4.6 6.9l18.6 58.7c1.2 3.9 2.4 7.7 3.4 11.3s1.9 7.1 2.6 10.5c1.7-3.4 3.5-6.9 5.6-10.5 2-3.6 4.2-7.4 6.5-11.4l33-58.7c1.3-2.4 3.3-4.6 5.9-6.5 2.6-2 5.7-2.9 9.3-2.9h35.9l-79.4 119.7zM835 156.1h-71.8l-6.4 51.1h60l-4.5 33.4h-59.6l-9.3 76h-43.7l24-194h115.6l-4.3 33.5zm46.5 88.1l-8.9 72.4h-43.1l23.7-194H912c11.9 0 22 1.3 30.4 3.8 8.4 2.5 15.2 6 20.6 10.5 5.3 4.4 9.2 9.7 11.6 15.8s3.7 12.7 3.7 19.8c0 7.2-1 14-2.9 20.4s-4.7 12.3-8.3 17.6c-3.6 5.4-8.1 10.1-13.4 14.2s-11.3 7.5-18 10.2c2.7 1.5 5.2 3.3 7.5 5.5s4.2 4.8 5.5 8l28.2 68.3h-39.1c-3.6 0-6.7-.7-9.2-2.1s-4.2-3.5-5.2-6.1l-21-57.4c-1-2.5-2.3-4.2-3.9-5.3-1.7-1-4.1-1.5-7.3-1.5h-9.7v-.1zm11.1-89.2l-7.3 59.2h15.8c6.2 0 11.5-.9 15.8-2.9 4.3-1.9 7.9-4.5 10.6-7.7s4.7-6.9 5.9-11.2 1.8-8.7 1.8-13.4c0-3.6-.5-7-1.6-9.9-1.1-3-2.7-5.5-5-7.6s-5.1-3.7-8.5-4.9-7.4-1.7-12-1.7h-15.5v.1zm229 1.1h-71.8l-5.9 46.9h55l-4.3 32.2h-54.7l-5.9 48.1h72.3l-4.3 33.4H986.2l24-194h115.6l-4.2 33.4zm131.2 0H1181l-5.8 46.8h55l-4.3 32.2h-54.7l-5.9 48.1h72.3l-4.3 33.4h-115.8l24-194h115.6l-4.3 33.5z"/></svg>